# xmcd
#
# Track frame offsets: 
#        150
#        13019
#        37122
#        51796
#        71738
#        97841
#        111476
#        131098
#        146146
#        158816
#        178021
#        196574
#        210488
#
# Disc length: 3049 seconds
#
# Revision: 0
# Processed by: cddbd v1.5.2PL0 Copyright (c) Steve Scherf et al.
# Submitted via: ExactAudioCopyFreeDBPlugin 1.0
#
DISCID=b90be70d
DTITLE=Free - All Right Now - The Essential Disc 2
DYEAR=1900
DGENRE=
TTITLE0=My Brother Jake
TTITLE1=Heavy Load
TTITLE2=The Stealer
TTITLE3=Remember
TTITLE4=Be My Friend
TTITLE5=Soon I Will Be Gone
TTITLE6=Get Where I Belong
TTITLE7=Travelling Man
TTITLE8=Soldier Boy
TTITLE9=Muddy Water
TTITLE10=Common Mortal MAn
TTITLE11=Bodie
TTITLE12=Travellin' In Style
EXTD=
EXTT0=
EXTT1=
EXTT2=
EXTT3=
EXTT4=
EXTT5=
EXTT6=
EXTT7=
EXTT8=
EXTT9=
EXTT10=
EXTT11=
EXTT12=
PLAYORDER=
